<svg width="677" height="558" viewBox="0 0 677 558" fill="none" xmlns="http://www.w3.org/2000/svg">
<path d="M-35 555.874V157.963C-23.2392 148.758 0.877621 130.348 3.25813 130.348C6.23376 130.348 96.778 79.3011 121.858 77.6275C146.939 75.9538 193.699 115.285 245.56 130.348C297.421 145.41 352.257 51.2674 415.596 13.6102C478.934 -24.047 589.033 39.9702 626.015 62.983C662.998 85.9957 684.253 138.297 671.075 166.331C657.897 194.365 577.555 201.059 532.496 227.001C487.436 252.943 489.136 332.441 464.056 347.086C438.976 361.73 342.055 439.137 323.776 471.773C305.497 504.409 251.936 526.167 202.2 490.183C162.412 461.396 27.4883 521.983 -35 555.874Z" fill="#A145FE" stroke="#232323" stroke-width="3" stroke-linecap="round" stroke-linejoin="round"/>
<path d="M162.569 136.31C173.451 129.95 174.188 110.787 173.196 102L231.858 130.871C234.834 141.749 237.81 163.005 225.907 160.996C214.005 158.988 202.527 181.08 198.276 192.377C182.69 188.612 150.836 179.155 148.116 171.457C144.715 161.833 148.966 144.26 162.569 136.31Z" fill="#FFCF23"/>
<ellipse cx="189.023" cy="135.892" rx="7.22653" ry="7.53144" fill="#232323"/>
<ellipse cx="189.023" cy="135.892" rx="7.22653" ry="7.53144" fill="#232323"/>
<ellipse cx="189.023" cy="135.892" rx="7.22653" ry="7.53144" fill="#232323"/>
<ellipse cx="189.023" cy="135.892" rx="7.22653" ry="7.53144" fill="#232323"/>
<ellipse cx="183.921" cy="155.139" rx="7.22653" ry="7.53144" fill="#232323"/>
<ellipse cx="183.921" cy="155.139" rx="7.22653" ry="7.53144" fill="#232323"/>
<ellipse cx="183.921" cy="155.139" rx="7.22653" ry="7.53144" fill="#232323"/>
<ellipse cx="183.921" cy="155.139" rx="7.22653" ry="7.53144" fill="#232323"/>
<ellipse cx="201.775" cy="149.282" rx="7.22653" ry="7.53144" fill="#232323"/>
<ellipse cx="201.775" cy="149.282" rx="7.22653" ry="7.53144" fill="#232323"/>
<ellipse cx="201.775" cy="149.282" rx="7.22653" ry="7.53144" fill="#232323"/>
<ellipse cx="201.775" cy="149.282" rx="7.22653" ry="7.53144" fill="#232323"/>
<rect x="513" y="60" width="98" height="85" rx="42.5" fill="white"/>
<rect x="397" y="59" width="98" height="85" rx="42.5" fill="white"/>
<rect x="398.322" y="63" width="96.2792" height="77.1592" rx="38.5796" fill="#232323"/>
<rect x="514.521" y="64.5909" width="96.2792" height="77.1592" rx="38.5796" fill="#232323"/>
<path d="M352.257 70.5568L408.282 96.0114H602.085L644 82.4887" stroke="#232323" stroke-width="9" stroke-linecap="round" stroke-linejoin="round"/>
</svg>
