<svg width="606" height="803" viewBox="0 0 606 803" fill="none" xmlns="http://www.w3.org/2000/svg">
<path d="M239.5 418.5C257.9 384.9 306.167 358.167 328 349L459.5 418.5C425.667 434.833 354.6 467.5 341 467.5C324 467.5 239.5 544 215 556C190.5 568 99.5001 524 86.5001 503.5C73.5001 483 57.5001 435.5 63.0001 411C67.4001 391.4 107.167 407.833 126.5 418.5C129 433.333 141.5 463.9 171.5 467.5C209 472 216.5 460.5 239.5 418.5Z" fill="#2E82FF" stroke="#232323" stroke-width="3"/>
<rect x="247.651" y="450.704" width="170" height="198" transform="rotate(110.922 247.651 450.704)" fill="white"/>
<path d="M26 525.5C35 508.5 31.5 508.5 40.5 492.5C49.5 476.5 46.5 472 55 462C63.5 452 60.5 442.5 65 436" stroke="#232323" stroke-width="15" stroke-linecap="round" stroke-linejoin="round"/>
<path d="M51 534.5C60 517.5 56.5 517.5 65.5 501.5C74.5 485.5 71.5 481 80 471C88.5 461 85.5 451.5 90 445" stroke="#232323" stroke-width="5" stroke-linecap="round" stroke-linejoin="round"/>
<path d="M62 539.5C71 522.5 67.5 522.5 76.5 506.5C85.5 490.5 82.5 486 91 476C99.5 466 96.5 456.5 101 450" stroke="#232323" stroke-width="5" stroke-linecap="round" stroke-linejoin="round"/>
<path d="M71 546.5C80 529.5 76.5 529.5 85.5 513.5C94.5 497.5 91.5 493 100 483C108.5 473 105.5 463.5 110 457" stroke="#232323" stroke-width="5" stroke-linecap="round" stroke-linejoin="round"/>
<path d="M80 549.5C89 532.5 85.5 532.5 94.5 516.5C103.5 500.5 100.5 496 109 486C117.5 476 114.5 466.5 119 460" stroke="#232323" stroke-width="5" stroke-linecap="round" stroke-linejoin="round"/>
<path d="M91 554.5C100 537.5 96.5 537.5 105.5 521.5C114.5 505.5 111.5 501 120 491C128.5 481 125.5 471.5 130 465" stroke="#232323" stroke-width="5" stroke-linecap="round" stroke-linejoin="round"/>
<path d="M101 557.5C110 540.5 106.5 540.5 115.5 524.5C124.5 508.5 121.5 504 130 494C138.5 484 135.5 474.5 140 468" stroke="#232323" stroke-width="5" stroke-linecap="round" stroke-linejoin="round"/>
<path d="M111 562.5C120 545.5 116.5 545.5 125.5 529.5C134.5 513.5 131.5 509 140 499C148.5 489 145.5 479.5 150 473" stroke="#232323" stroke-width="5" stroke-linecap="round" stroke-linejoin="round"/>
<path d="M125 566.5C134 549.5 130.5 549.5 139.5 533.5C148.5 517.5 145.5 513 154 503C162.5 493 159.5 483.5 164 477" stroke="#232323" stroke-width="5" stroke-linecap="round" stroke-linejoin="round"/>
<path d="M140 575.5C149 558.5 145.5 558.5 154.5 542.5C163.5 526.5 160.5 522 169 512C177.5 502 174.5 492.5 179 486" stroke="#232323" stroke-width="5" stroke-linecap="round" stroke-linejoin="round"/>
<path d="M159 579.5C168 562.5 164.5 562.5 173.5 546.5C182.5 530.5 179.5 526 188 516C196.5 506 193.5 496.5 198 490" stroke="#232323" stroke-width="5" stroke-linecap="round" stroke-linejoin="round"/>
<path d="M172.596 53.2881C173.115 52.9754 173.631 52.6658 174.142 52.3593C226.609 20.898 284.252 -0.731848 345 6.50002C410.42 14.2882 368.596 15.2881 511.096 21.2881C653.596 27.2881 634.096 19.7881 727.096 105.788C820.096 191.788 727.096 169.288 812.096 242.288C897.096 315.288 898.096 261.288 940.096 301.788C982.096 342.288 958.096 407.288 948.096 448.788C938.096 490.288 995.096 566.289 1029.6 601.789C1046.24 618.915 1046.99 681.751 1042.44 745.057C1037.76 810.223 981.438 857.789 916.105 857.789H820.064C779.596 857.789 751.684 819.291 765.596 781.289C786.096 725.289 762.096 732.289 739.096 644.789C716.096 557.289 576.596 594.789 467.596 595.789C358.596 596.789 318.596 501.788 286.096 429.788C253.596 357.788 84.0957 396.288 36.5957 350.788C-10.9043 305.288 1.59571 231.288 10.0957 169.288C18.5957 107.288 118.596 85.7881 172.596 53.2881Z" fill="#2E82FF" stroke="#232323" stroke-width="3"/>
<rect x="107" y="267" width="126" height="111" rx="55.5" fill="white"/>
<rect x="246" y="272" width="127" height="106" rx="53" fill="white"/>
<rect x="246" y="312" width="79" height="66" rx="33" fill="#232323"/>
<rect x="107" y="312" width="79" height="66" rx="33" fill="#232323"/>
<path d="M237 312.5C237 347.473 207.102 376 170 376C132.898 376 103 347.473 103 312.5C103 277.527 132.898 249 170 249C207.102 249 237 277.527 237 312.5Z" stroke="#232323" stroke-width="4"/>
<path d="M362 322.5C362 357.473 332.102 386 295 386C257.898 386 228 357.473 228 322.5C228 287.527 257.898 259 295 259C332.102 259 362 287.527 362 322.5Z" stroke="#232323" stroke-width="4"/>
<path d="M60 111L107 293" stroke="#232323" stroke-width="3"/>
<path d="M353 293L600 27.9999" stroke="#232323" stroke-width="3"/>
</svg>
