<svg width="533" height="431" viewBox="0 0 533 431" fill="none" xmlns="http://www.w3.org/2000/svg">
<path d="M282 55.6239C301.667 38.7906 346 5.72388 366 8.12388C391 11.1239 478.5 5.12387 490.5 43.6239C500.1 74.4239 494.5 99.1239 490.5 107.624" stroke="#232323" stroke-width="16" stroke-linecap="round" stroke-linejoin="round"/>
<rect x="452.583" y="86" width="64.1922" height="76" rx="17" transform="rotate(22.0917 452.583 86)" fill="#232323"/>
<path d="M407.723 612.544C286.223 609.71 38.6225 602.844 20.2225 598.044C11.8892 544.044 -3.07749 427.344 3.72251 392.544C12.2225 349.044 105.223 334.544 142.723 316.044C180.223 297.544 211.923 185.746 228 151.5C243.277 118.956 285.723 59.0436 306.223 42.5436C326.723 26.0436 436.723 15.5436 480.223 42.5436C523.723 69.5436 480.223 125.544 468.223 160.544C456.223 195.544 519.723 251.544 528.223 289.044C536.723 326.544 530.223 378.044 480.223 363.544C440.223 351.944 415.223 524.71 407.723 612.544Z" fill="#D04598" stroke="#232323" stroke-width="3" stroke-linecap="round" stroke-linejoin="round"/>
<rect x="252.583" y="48" width="63" height="76" rx="17" transform="rotate(22.0917 252.583 48)" fill="#232323"/>
<rect x="347.546" y="53" width="60.7591" height="53.0572" rx="26.5286" transform="rotate(11.4647 347.546 53)" fill="white"/>
<rect x="412.453" y="68.7834" width="60.7591" height="50.49" rx="25.245" transform="rotate(11.4647 412.453 68.7834)" fill="white"/>
<rect x="423.808" y="90.2963" width="38.5093" height="31.6632" rx="15.8316" transform="rotate(11.4647 423.808 90.2963)" fill="#232323"/>
<rect x="358.39" y="77.0289" width="38.5093" height="31.6632" rx="15.8316" transform="rotate(11.4647 358.39 77.0289)" fill="#232323"/>
</svg>
